PathFileType	4	(X/Y/Z)	Beam_150-250.trc
DataRate	CameraRate	NumFrames	NumMarkers	Units	OrigDataRate	OrigDataStartFrame	OrigNumFrames
60	60	8	21	m	60	62	99
Frame#	Time	RHip			RKnee			RAnkle			RBigToe			RSmallToe			RHeel			LHip			LKnee			LAnkle			LBigToe			LSmallToe			LHeel			Neck			Head			Nose			RShoulder			RElbow			RWrist			LShoulder			LElbow			LWrist		
		X1	Y1	Z1	X2	Y2	Z2	X3	Y3	Z3	X4	Y4	Z4	X5	Y5	Z5	X6	Y6	Z6	X7	Y7	Z7	X8	Y8	Z8	X9	Y9	Z9	X10	Y10	Z10	X11	Y11	Z11	X12	Y12	Z12	X13	Y13	Z13	X14	Y14	Z14	X15	Y15	Z15	X16	Y16	Z16	X17	Y17	Z17	X18	Y18	Z18	X19	Y19	Z19	X20	Y20	Z20	X21	Y21	Z21	
62	3.55	-0.22445814960695912	1.0025638459427983	-0.9604953007980568	-0.3455113836531711	0.6516313947626947	-0.7946073256474482	-0.415573421628357	0.27589985125980065	-0.7750870751362616	-0.38293880536813824	0.2072554923555087	-0.618834274017279	-0.4408001625111869	0.20407774661324815	-0.6547327147465882	-0.4237969789145933	0.24246659521525674	-0.8011579625455055	-0.06295656848376519	0.9124515562555513	-1.0774580068496387	-0.06000963934042291	0.5231009601975893	-0.9303640766680948	-0.013847591680820249	0.1428387536270086	-1.137712867488611	-0.008201776592457572	0.07587957117076861	-0.9920648801260351	0.016585301114033207	0.07605290466034405	-1.039463959812023	-0.012618771898539575	0.10078507133792974	-1.197016348810971	0.18750251693544337	1.329199858423818	-0.8811457759726371	0.3762955098457253	1.5021689063221322	-0.6845354605259044	0.25829843166296124	1.3604952818428018	-0.6864555418204906	0.05333328162899183	1.446163430554594	-0.853489168131565	-0.20770018754870567	1.482121056518184	-0.8620690352112411	-0.10254597311495503	1.5895287940274305	-0.650588803833443	0.31483078421842714	1.2240479776014443	-0.9586058342900471	0.3861752059989774	0.9450449946421047	-0.9919949250684325	0.4305546809236486	0.7001501297682986	-0.9298226677203935
63	3.566666666666667	-0.22346437533770808	0.9993509093863504	-0.9558679266306371	-0.3215311658650532	0.6400801114176844	-0.7880026338474255	-0.3724345294426646	0.2635397073948486	-0.7612809047364062	-0.33321249517021384	0.1927887146392816	-0.6121986849260439	-0.38983663606212693	0.18620070806526648	-0.6458000238187189	-0.3790202457516166	0.22966752345239552	-0.7856478260255234	-0.06170023418264584	0.9134672195195799	-1.073874611107887	-0.05669475361866045	0.5208659753107212	-0.9362500090665968	-0.013016552885868966	0.144223270415465	-1.1306101119222962	-0.007287552837532492	0.07426301097516136	-0.991792569148854	0.013470342950648596	0.0750938173354893	-1.0443682874950189	-0.014694848961579332	0.1004476499542825	-1.1923975324459688	0.1811940560574572	1.3350032357931376	-0.8728418424917133	0.3730528486484682	1.508233553210847	-0.6814207913806525	0.25507185631807844	1.3630787232957802	-0.6835213681959987	0.0442275960895211	1.4474799121427053	-0.8496969053218353	-0.21774115403301547	1.477004198762611	-0.8575400972531267	-0.11351961629064182	1.5850063094508131	-0.6394630020830198	0.31502073303076034	1.2308330571794632	-0.9432131403596244	0.38379050342886917	0.9494699049209527	-0.9840090534630989	0.42904119242787375	0.7028141045408248	-0.9264250440179858
64	3.583333333333333	-0.22238966245936653	0.9950407614558644	-0.9513103098058313	-0.29805615760014914	0.6286020446000647	-0.7837982038085645	-0.33201543785044585	0.25079864815875147	-0.7494911603429661	-0.2857253116249116	0.17810902994832875	-0.6081571939240634	-0.3399927562991052	0.16974255564359417	-0.6374816445723744	-0.3371993541180054	0.21726974097706608	-0.7720279048217307	-0.060570197888179966	0.9142402197511897	-1.069045386846844	-0.05387007778585239	0.5186451082577024	-0.9420222462657796	-0.013353571750716983	0.14586036888216466	-1.126485859530588	-0.006372402777043722	0.07224089899076233	-0.9922698664792269	0.009782953063978654	0.07430402023212829	-1.0505846349220231	-0.01716477618169531	0.10196490019044512	-1.185852064211382	0.17524408730505972	1.340812942199059	-0.864959349217973	0.3655716282946368	1.5148952872331036	-0.6833464628558891	0.2520830487862795	1.3661288364088846	-0.6811913116995877	0.033247980944728056	1.447425473194493	-0.8471541994802461	-0.22887437196494353	1.472195815832548	-0.852921959789311	-0.12566065033233897	1.578967395235304	-0.6313828279392855	0.3147086583541569	1.2385588524001645	-0.9256922785138543	0.38119092572577734	0.9543680512299707	-0.9760814184789455	0.4280884462593637	0.7068024604712491	-0.9193471039812318
65	3.6	-0.22130607711078445	0.9899901211470568	-0.9468456251377908	-0.2754558067859086	0.6164248294565609	-0.7836914894695498	-0.29466198112617453	0.2371763035483922	-0.7409883214403049	-0.24186839385994868	0.16226991598368354	-0.6062786090505693	-0.29348458954412465	0.1546868646962423	-0.6292477844285147	-0.299440362575276	0.20549419143617625	-0.7596749952947395	-0.059098098222290306	0.9146384185972289	-1.062823675328774	-0.05115169694878747	0.5172683165517643	-0.9449974850263015	-0.015179353796897789	0.14771546491059478	-1.1265313568212292	-0.005980185385846019	0.06977678458726726	-0.9931289838165384	0.006245039854462385	0.07358384291951295	-1.0567284180436707	-0.020151123411762867	0.10538325438479954	-1.177564629529268	0.16948628472224955	1.3463751220310163	-0.8571068934384357	0.35319304013386543	1.5227041673324542	-0.6890032812887887	0.2485139747465563	1.3699495969134379	-0.6781652460644019	0.021320098535083157	1.4466268278961332	-0.8441631095115899	-0.24051521407045204	1.4676211727046873	-0.8487079783111227	-0.139017518012168	1.5709197271592747	-0.6260911780436145	0.3131635948812448	1.2471797031433558	-0.9070076787502989	0.3786414851485261	0.9602618665249466	-0.9676044275227744	0.4276824211434914	0.7124466998215303	-0.9100024417390717
66	3.6166666666666663	-0.2200252976083527	0.9847167639136536	-0.9423122110600018	-0.25435071858157154	0.6029673708295584	-0.7882623295184428	-0.2602546811860104	0.2231088647102608	-0.7359069330159205	-0.20306288437335443	0.14582735353895776	-0.6048599651852958	-0.25275316972686246	0.14145594779735404	-0.6204737193483559	-0.26593305118805627	0.19457960665402202	-0.7476536701590794	-0.056688668854031204	0.9146234596914076	-1.0552819445630799	-0.048019494643262696	0.5173212432017489	-0.9433381628997601	-0.01813318259734555	0.14993584332706403	-1.1302417581145974	-0.0064789994182956065	0.06729274090948097	-0.993560340041687	0.00341754743736592	0.07294798722725063	-1.0612338060072817	-0.023544055166202747	0.11038728188749186	-1.1685921814128686	0.1636080007562027	1.3517950643234158	-0.8488253606990157	0.3367368542594711	1.5317585712699322	-0.6947268200946788	0.24396178181236125	1.3745694820058187	-0.6735878018067718	0.009647141153042608	1.4456782282548355	-0.8398226489915271	-0.2520942912321991	1.4631213032373882	-0.8454410244531128	-0.1534677005788541	1.5613471092654714	-0.6224137596726562	0.30964833483764415	1.256547899946286	-0.8889980762824267	0.3762234501318878	0.9675128029965614	-0.9585033195606172	0.4277231475007139	0.7199158761574321	-0.899966528984389
67	3.633333333333333	-0.21817897595527325	0.9796514041611499	-0.9372634566719301	-0.23555822881848432	0.5883388969344571	-0.7963589307582597	-0.22843818021644696	0.2093789326597736	-0.7332013784238461	-0.1702772500205106	0.12987559935288606	-0.6024807235647651	-0.21915542359676243	0.13005565081058496	-0.6110428869862272	-0.23531585286960804	0.18416028898491155	-0.7358668887442325	-0.05264470208340866	0.9141044575294311	-1.0463260989342966	-0.04434958997944011	0.5186768283587054	-0.9377611112937032	-0.021381259168903113	0.15214790187899294	-1.136138768190939	-0.008034062433613109	0.06547969326300182	-0.9927489616163501	0.0013865165081052623	0.07241766795650663	-1.063139884382112	-0.026755469431474957	0.11613737569462579	-1.1598682596444396	0.1572187568419584	1.357282985485038	-0.8397388174727659	0.31895958117338835	1.541285414815321	-0.694189085922418	0.23832324032887278	1.3797867456974906	-0.6671539777526168	-0.0009006135129149694	1.4448298194227007	-0.8342863454587323	-0.26313967898117546	1.4584692506958357	-0.8432722829385288	-0.16860734491272972	1.5516271857867578	-0.6182194498809221	0.30366659999722506	1.2662587442965794	-0.8739415630817423	0.3736984886784251	0.9761111877273744	-0.9501298492793735	0.42819635102854636	0.729282527912527	-0.8903617366670781
68	3.65	-0.21545152692177055	0.9749819052338434	-0.9309188668558281	-0.2195089882750275	0.5735001291644436	-0.8054377876662514	-0.19881745631976674	0.19656523266505588	-0.7316524658447753	-0.14362305532000294	0.11506581285450407	-0.5993394552849781	-0.19225832132324255	0.11969480288759121	-0.6018813776064917	-0.20579381723674597	0.17360469452444469	-0.7251811189966332	-0.04622000159086079	0.9128677274107045	-1.0355103617360517	-0.04009913715439832	0.5206341962826073	-0.9302906381511827	-0.024016522184994255	0.15336911245835824	-1.1424763965087623	-0.010322866046924908	0.06480740966117558	-0.9905636544148898	0.0001932385179916108	0.07196566395765833	-1.0624601864230498	-0.028931617153854648	0.12140227410012669	-1.1516070899867241	0.1499300316480848	1.3629385536521008	-0.8297338489413845	0.30339036792073826	1.5502130004203845	-0.6823633574915791	0.23151916493168279	1.3853934947330329	-0.6590333394053194	-0.009625782820710145	1.444568043124356	-0.8267159933248929	-0.27329741222998694	1.4533487247904624	-0.8417315480448911	-0.18374185878245664	1.5430488184707358	-0.6112081582541775	0.2951350695114636	1.2757165909551564	-0.8637325882199915	0.3706493584660876	0.9858101292282998	-0.9446265941282428	0.4292146336280044	0.7406082514964671	-0.8816960374530463
69	3.6666666666666665	-0.2116386843621594	0.9706432392269378	-0.9224064282912031	-0.20559562179270163	0.5601094493005582	-0.8124945286932251	-0.17130390851142144	0.18504101445868448	-0.7307523038062538	-0.12222027544662509	0.10171025105452924	-0.5966560711620547	-0.17052539501504096	0.1094874696398342	-0.5946268744341154	-0.17666618176778623	0.16267894225680885	-0.7171988887808839	-0.03704961074511468	0.9107468233597162	-1.0225149216424256	-0.03505744509988251	0.5223983201972141	-0.9224069510613644	-0.02554620993219719	0.1530207303196072	-1.1479000458427	-0.012340077668466749	0.06517039984492574	-0.9876829444386163	0.00013112613951508023	0.07157414931784933	-1.0600463889064382	-0.029790138121008836	0.12535938916809444	-1.1439997586873247	0.14161842990774987	1.3687401188143102	-0.8191101757001769	0.29184391131714515	1.5582848757968546	-0.6609487198481365	0.22344305648030555	1.3913902607214834	-0.6496594508440651	-0.016065925141980218	1.445582633030737	-0.8151235866410794	-0.2824302888429875	1.4473364392181054	-0.8398825762006954	-0.19814267360582682	1.5356576099823225	-0.6006521419270193	0.28426949072099456	1.2843109155086179	-0.8597518450570755	0.3668597683335504	0.9964316701407814	-0.9432005458077396	0.43088833392765247	0.7539504785616423	-0.8739185512336061
